# xmcd
#
# Track frame offsets:
# 150
# 27815
# 38062
# 51414
# 69078
# 90323
# 100927
# 130866
# 170692
# 191581
# 211796
# 226482
# 232813
# 232833
#
# Disc length: 3104 seconds
#
# Revision: 0
# Processed by: cddbd v1.5.1PL2 Copyright (c) Steve Scherf et al.
# Submitted via: Audion 3.0.2 (http://www.panic.com/audion/)
#
DISCID=a70c1e0e
DTITLE=direct - fixafat
DYEAR=1900
DGENRE=
TTITLE0=w
TTITLE1=w
TTITLE2=w
TTITLE3=w
TTITLE4=w
TTITLE5=w
TTITLE6=w
TTITLE7=w
TTITLE8=w
TTITLE9=w
TTITLE10=w
TTITLE11=w
TTITLE12=w
TTITLE13=w
EXTD=
EXTT0=
EXTT1=
EXTT2=
EXTT3=
EXTT4=
EXTT5=
EXTT6=
EXTT7=
EXTT8=
EXTT9=
EXTT10=
EXTT11=
EXTT12=
EXTT13=
PLAYORDER=
